<svg fill="none" height="16" viewBox="0 0 16 16" width="16" xmlns="http://www.w3.org/2000/svg"><path d="m13.2182 4.2459-6.13145 1.99222c-.07218.04614-.15507.07291-.24012.07802l-2.10461.68383h8.75798c.2762 0 .5.22386.5.5v5.00003c0 1.3807-1.1193 2.5-2.5 2.5h-6.99997c-1.38071 0-2.5-1.1193-2.5-2.5v-5.00003c0-.10674.03345-.20567.09044-.28688l-.19571-.60232c-.42666-1.31313.29197-2.72352 1.6051-3.15018l6.65744-2.16312c1.3131-.426661 2.7235.29197 3.1501 1.6051l.2318.71329c.0853.26263-.0584.54471-.321.63004zm-3.74407.16505 1.28547-2.22644c-.0979.01128-.196.03241-.2933.06402l-1.24523.40459-1.30767 2.26495zm2.29527-1.97893c-.0059.01244-.0123.02474-.0193.03687l-.8546 1.48025 1.5381-.49979-.0772-.23776c-.1076-.33096-.3192-.59898-.587-.77957zm-3.96966.68292-1.56073.50711-1.30767 2.26495 1.56073-.50711zm-4.87667 3.42458.58694-.1907 1.30766-2.26495-1.00879.32778c-.78788.256-1.21906 1.10223-.96306 1.89011zm.07696 1.46045v4.50003c0 .8284.67157 1.5 1.5 1.5h6.99997c.8285 0 1.5-.6716 1.5-1.5v-4.50003z" fill="#212121"/></svg>